<svg width="82" height="82" viewBox="0 0 82 82" fill="none" xmlns="http://www.w3.org/2000/svg">
<g clip-path="url(#clip0_12_7)">
<rect width="82" height="82" fill="white"/>
<rect width="82" height="82" fill="white"/>
<path d="M40.9934 64.0152C53.6961 64.0152 64 53.7125 64 41C64 28.2875 53.6961 17.9848 40.9934 17.9848C28.2906 17.9848 17.9867 28.2875 17.9867 41C17.9867 53.7125 28.2906 64.0152 40.9934 64.0152Z" fill="#E84B1F"/>
<path d="M56.313 41C56.313 39.1317 54.8274 37.629 52.9465 37.629C52.0333 37.629 51.2292 37.9674 50.6159 38.5902C48.3261 36.952 45.1504 35.8825 41.6749 35.72L43.2014 28.5312L48.1625 29.5601C48.2034 30.8192 49.2665 31.8481 50.575 31.8481C51.8834 31.8481 52.9874 30.7785 52.9874 29.4383C52.9874 28.098 51.9243 27.0284 50.575 27.0284C49.6209 27.0284 48.8167 27.57 48.4351 28.3687L42.8606 27.1773C42.8606 27.1773 42.5608 27.1773 42.3972 27.2586C42.2473 27.3398 42.1655 27.4887 42.1246 27.6377L40.4482 35.6659C36.85 35.7742 33.688 36.8166 31.3573 38.536C30.7849 37.9674 29.9398 37.5748 29.0267 37.5748C27.1594 37.5748 25.6602 39.064 25.6602 40.9458C25.6602 42.3268 26.4643 43.464 27.6501 44.0055C27.6501 44.3169 27.5683 44.696 27.5683 45.0344C27.5683 50.1925 33.5653 54.3623 40.9798 54.3623C48.3942 54.3623 54.3912 50.1925 54.3912 45.0344C54.3912 44.696 54.3912 44.344 54.3095 44.0461C55.4134 43.5046 56.2585 42.3268 56.2585 40.9458H56.2994V40.9865L56.313 41ZM33.3063 43.4098C33.3063 42.1101 34.3694 41 35.7188 41C37.0681 41 38.1312 42.0695 38.1312 43.4098C38.1312 44.7501 37.0681 45.8196 35.7188 45.8196C34.3694 45.8196 33.3063 44.7501 33.3063 43.4098ZM46.6769 49.7187C45.0277 51.3568 41.9066 51.4787 41.0207 51.4787C40.1347 51.4787 36.9727 51.3298 35.3644 49.7187C35.1327 49.4885 35.1327 49.0689 35.3644 48.8387C35.5961 48.6085 36.0186 48.6085 36.2367 48.8387C37.2725 49.8676 39.4533 50.2467 41.0479 50.2467C42.6426 50.2467 44.8369 49.8676 45.8591 48.8387C46.0908 48.6085 46.5134 48.6085 46.7314 48.8387C46.9222 49.1095 46.9222 49.4885 46.6905 49.7187H46.6497H46.6769ZM46.2544 45.779C44.9596 45.779 43.842 44.7095 43.842 43.3692C43.842 42.0289 44.9051 40.9594 46.2544 40.9594C47.6037 40.9594 48.6668 42.0289 48.6668 43.3692C48.6668 44.7095 47.6037 45.779 46.2544 45.779Z" fill="white"/>
</g>
<defs>
<clipPath id="clip0_12_7">
<rect width="82" height="82" fill="white"/>
</clipPath>
</defs>
</svg>
