<?xml version="1.0" encoding="utf-8"?>
<!-- Generator: Adobe Illustrator 27.2.0, SVG Export Plug-In . SVG Version: 6.00 Build 0)  -->
<svg version="1.1" id="Layer_1" xmlns="http://www.w3.org/2000/svg" xmlns:xlink="http://www.w3.org/1999/xlink" x="0px" y="0px"
	 viewBox="0 0 105.1 34" style="enable-background:new 0 0 105.1 34;" xml:space="preserve">
<style type="text/css">
	.st0{fill:#E84B1F;}
	.st1{fill:#FFFFFF;}
</style>
<g>
	<path class="st0" d="M16.9,34c9.3,0,16.9-7.6,16.9-17c0-9.4-7.6-17-16.9-17C7.6,0,0,7.6,0,17C0,26.4,7.6,34,16.9,34z"/>
	<path class="st1" d="M28.1,17c0-1.4-1.1-2.5-2.5-2.5c-0.7,0-1.3,0.3-1.7,0.7c-1.7-1.2-4-2-6.6-2.1l1.1-5.3l3.6,0.8
		c0,0.9,0.8,1.7,1.8,1.7c1,0,1.8-0.8,1.8-1.8s-0.8-1.8-1.8-1.8c-0.7,0-1.3,0.4-1.6,1l-4.1-0.9c0,0-0.2,0-0.3,0.1
		c-0.1,0.1-0.2,0.2-0.2,0.3l-1.2,5.9c-2.6,0.1-5,0.8-6.7,2.1c-0.4-0.4-1-0.7-1.7-0.7c-1.4,0-2.5,1.1-2.5,2.5c0,1,0.6,1.9,1.5,2.3
		C7.1,19.5,7,19.7,7,20c0,3.8,4.4,6.9,9.8,6.9s9.8-3.1,9.8-6.9c0-0.3,0-0.5-0.1-0.7C27.5,18.9,28.1,18,28.1,17L28.1,17L28.1,17z
		 M11.2,18.8c0-1,0.8-1.8,1.8-1.8c1,0,1.8,0.8,1.8,1.8c0,1-0.8,1.8-1.8,1.8C12,20.6,11.2,19.8,11.2,18.8z M21.1,23.4
		c-1.2,1.2-3.5,1.3-4.1,1.3c-0.6,0-3-0.1-4.1-1.3c-0.2-0.2-0.2-0.5,0-0.6c0.2-0.2,0.5-0.2,0.6,0c0.8,0.8,2.4,1,3.5,1
		c1.2,0,2.8-0.3,3.5-1c0.2-0.2,0.5-0.2,0.6,0C21.3,23,21.3,23.3,21.1,23.4L21.1,23.4z M20.7,20.5c-1,0-1.8-0.8-1.8-1.8
		c0-1,0.8-1.8,1.8-1.8c1,0,1.8,0.8,1.8,1.8C22.5,19.7,21.7,20.5,20.7,20.5z"/>
</g>
<g>
	<path d="M36.9,31.4h-1L46.4,4h1L36.9,31.4z"/>
	<path d="M56.3,29.2h-0.9V2.6h0.9V29.2z"/>
	<path d="M65.7,4.6c0-0.3,0.1-0.5,0.3-0.7c0.2-0.2,0.4-0.3,0.7-0.3c0.3,0,0.5,0.1,0.7,0.3c0.2,0.2,0.3,0.4,0.3,0.7
		c0,0.3-0.1,0.5-0.3,0.7S67,5.6,66.7,5.6c-0.3,0-0.5-0.1-0.7-0.3S65.7,4.9,65.7,4.6z M67.2,29.2h-0.9V10.5h0.9V29.2z"/>
	<path d="M78.9,5.4v5h4.3v0.9h-4.3v13.3c0,1.3,0.2,2.3,0.6,2.9c0.4,0.6,1.2,1,2.2,1c0.5,0,1.1-0.1,1.9-0.2l0.2,0.9
		c-0.4,0.1-1,0.2-2,0.2c-1.4,0-2.3-0.4-2.9-1.1c-0.6-0.8-0.9-1.9-0.9-3.6V11.4h-3.5v-0.9H78v-5H78.9z"/>
	<path d="M98.3,29.5c-1.5,0-2.9-0.4-4.2-1.2c-1.3-0.8-2.3-1.9-3-3.3c-0.7-1.4-1.1-3-1.1-4.7v-0.8c0-1.7,0.3-3.3,1-4.8
		c0.7-1.4,1.6-2.6,2.9-3.4s2.5-1.2,4-1.2c2.1,0,3.8,0.7,5.1,2.2c1.3,1.5,2,3.4,2,5.9v1H91v1c0,1.5,0.3,2.9,1,4.2
		c0.6,1.3,1.5,2.3,2.6,3c1.1,0.7,2.3,1.1,3.7,1.1c1.3,0,2.3-0.2,3.2-0.6c0.9-0.4,1.7-1.1,2.3-1.9l0.7,0.5
		C103.1,28.5,101.1,29.5,98.3,29.5z M98,11.1c-1.8,0-3.4,0.7-4.6,2s-2,3.1-2.2,5.2h13v-0.2c0-1.3-0.3-2.4-0.8-3.5
		c-0.5-1.1-1.3-1.9-2.2-2.5C100.2,11.4,99.1,11.1,98,11.1z"/>
</g>
</svg>
