<svg width="121" height="34" viewBox="0 0 121 34" fill="none" xmlns="http://www.w3.org/2000/svg">
<g clip-path="url(#clip0_3_131)">
<path d="M16.8772 34C26.1982 34 33.7544 26.3888 33.7544 17C33.7544 7.61116 26.1982 0 16.8772 0C7.55618 0 0 7.61116 0 17C0 26.3888 7.55618 34 16.8772 34Z" fill="#E84B1F"/>
<path d="M28.1193 17C28.1193 15.6163 27.0259 14.5149 25.6522 14.5149C24.9794 14.5149 24.3906 14.7691 23.9421 15.2209C22.26 14.0066 19.933 13.2159 17.3818 13.103L18.5032 7.79402L22.1478 8.55648C22.1758 9.48837 22.9608 10.2508 23.914 10.2508C24.8672 10.2508 25.6803 9.46013 25.6803 8.47176C25.6803 7.48339 24.8953 6.69269 23.914 6.69269C23.2132 6.69269 22.6244 7.08804 22.3441 7.68106L18.2509 6.80565C18.2509 6.80565 18.0266 6.80565 17.9145 6.86212C17.8024 6.9186 17.7463 7.03156 17.7183 7.14452L16.4847 13.0747C13.8494 13.1595 11.5225 13.9219 9.81232 15.1927C9.39179 14.7691 8.77502 14.4867 8.10217 14.4867C6.72844 14.4867 5.63507 15.588 5.63507 16.9718C5.63507 17.9884 6.22381 18.8355 7.0929 19.2309C7.0929 19.4568 7.03683 19.7392 7.03683 19.9934C7.03683 23.8056 11.4384 26.8837 16.8772 26.8837C22.316 26.8837 26.7176 23.8056 26.7176 19.9934C26.7176 19.7392 26.7176 19.485 26.6615 19.2591C27.4745 18.8638 28.0913 17.9884 28.0913 16.9718H28.1193V17ZM11.2421 18.7791C11.2421 17.8189 12.0271 17 13.0083 17C13.9896 17 14.7746 17.7907 14.7746 18.7791C14.7746 19.7674 13.9896 20.5581 13.0083 20.5581C12.0271 20.5581 11.2421 19.7674 11.2421 18.7791ZM21.0544 23.4385C19.8489 24.6528 17.55 24.7375 16.9052 24.7375C16.2604 24.7375 13.9335 24.6246 12.756 23.4385C12.5878 23.2691 12.5878 22.9585 12.756 22.789C12.9242 22.6196 13.2326 22.6196 13.4008 22.789C14.1578 23.5515 15.7558 23.8339 16.9333 23.8339C18.1107 23.8339 19.7088 23.5515 20.4657 22.789C20.6339 22.6196 20.9423 22.6196 21.1105 22.789C21.2507 22.9867 21.2507 23.2691 21.0825 23.4385H21.0544ZM20.7461 20.5299C19.7929 20.5299 18.9798 19.7392 18.9798 18.7508C18.9798 17.7625 19.7648 16.9718 20.7461 16.9718C21.7273 16.9718 22.5123 17.7625 22.5123 18.7508C22.5123 19.7392 21.7273 20.5299 20.7461 20.5299Z" fill="white"/>
<path d="M40.5389 28.7758H39.6979L48.4729 5.7608H49.314L40.5389 28.7758Z" fill="#1D1D1B"/>
<path d="M57.3881 26.9684H56.6031V4.63123H57.3881V26.9684Z" fill="#1D1D1B"/>
<path d="M65.8547 6.29733C65.8547 6.07142 65.9388 5.87374 66.079 5.73255C66.2192 5.59135 66.4154 5.47839 66.6397 5.47839C66.864 5.47839 67.0602 5.56311 67.2004 5.73255C67.3406 5.90198 67.4527 6.07142 67.4527 6.29733C67.4527 6.52324 67.3686 6.72092 67.2004 6.86211C67.0322 7.00331 66.864 7.08803 66.6397 7.08803C66.4154 7.08803 66.2192 7.00331 66.079 6.86211C65.9388 6.72092 65.8547 6.52324 65.8547 6.29733ZM67.0322 26.9684H66.2472V11.2392H67.0322V26.9967V26.9684Z" fill="#1D1D1B"/>
<path d="M74.9662 18.9485C74.9662 16.4352 75.4989 14.4867 76.5362 13.0748C77.5735 11.6628 79.0313 10.9568 80.8536 10.9568C82.0311 10.9568 83.0404 11.2392 83.9655 11.7758C84.8907 12.3123 85.5916 13.103 86.1523 14.1478V11.2674H86.9372V26.7425C86.9372 28.8322 86.4046 30.4419 85.3392 31.5997C84.2739 32.7575 82.8441 33.3505 81.0218 33.3505C79.9845 33.3505 79.0033 33.1246 78.1342 32.6728C77.2651 32.2209 76.5081 31.5714 75.8914 30.696L76.4521 30.1595C77.0689 30.9219 77.7137 31.515 78.4426 31.9385C79.1715 32.3621 80.0125 32.5598 80.9938 32.5598C82.5918 32.5598 83.8534 32.0797 84.7505 31.0914C85.6476 30.103 86.0962 28.7193 86.1242 26.9402V24.5399C85.5916 25.4435 84.8626 26.1213 83.9375 26.6013C83.0123 27.0814 81.975 27.3356 80.7975 27.3356C78.9752 27.3356 77.5455 26.6013 76.5081 25.1611C75.4708 23.7209 74.9382 21.7442 74.9382 19.2027V19.005L74.9662 18.9485ZM75.7512 19.2591C75.7512 21.5183 76.1998 23.2691 77.0688 24.5681C77.9379 25.8671 79.1995 26.4884 80.7975 26.4884C82.1152 26.4884 83.2366 26.1777 84.1618 25.5565C85.0869 24.9352 85.7317 24.088 86.1242 22.9585V15.814C85.2832 13.0748 83.5169 11.7193 80.8256 11.7193C79.2276 11.7193 77.966 12.3405 77.0688 13.6113C76.1717 14.8821 75.7232 16.7459 75.7232 19.2309L75.7512 19.2591Z" fill="#1D1D1B"/>
<path d="M96.2729 14.8821C96.7776 13.6678 97.5345 12.7076 98.5157 11.9734C99.497 11.2392 100.618 10.9003 101.796 10.9003C103.478 10.9003 104.712 11.3804 105.525 12.3405C106.338 13.3007 106.758 14.7409 106.758 16.6611V26.9402H105.973V16.6611C105.973 14.9668 105.609 13.7243 104.936 12.9053C104.263 12.0864 103.198 11.691 101.74 11.691C100.394 11.691 99.2166 12.1711 98.2354 13.1312C97.2542 14.0914 96.5813 15.3339 96.2449 16.8588V26.9402H95.4599V4.63123H96.2449V14.9103L96.2729 14.8821Z" fill="#1D1D1B"/>
<path d="M116.991 6.97508V11.211H120.551V12.0017H116.991V23.1844C116.991 24.3139 117.159 25.1329 117.524 25.6694C117.888 26.206 118.477 26.4601 119.346 26.4601C119.766 26.4601 120.271 26.4036 120.888 26.3189L121.028 27.0531C120.72 27.1661 120.159 27.2226 119.402 27.2226C118.253 27.2226 117.44 26.912 116.963 26.2625C116.458 25.6412 116.234 24.6246 116.206 23.2691V11.9734H113.318V11.1827H116.206V6.94684H116.991V6.97508Z" fill="#1D1D1B"/>
</g>
<defs>
<clipPath id="clip0_3_131">
<rect width="121" height="34" fill="white"/>
</clipPath>
</defs>
</svg>
